<svg width="36" height="35" viewBox="0 0 36 35" fill="none" xmlns="http://www.w3.org/2000/svg">
<path d="M11.25 31.6667C12.4006 31.6667 13.3333 30.7339 13.3333 29.5833C13.3333 28.4327 12.4006 27.5 11.25 27.5C10.0994 27.5 9.16663 28.4327 9.16663 29.5833C9.16663 30.7339 10.0994 31.6667 11.25 31.6667Z" fill="#006DAB"/>
<path d="M22.0833 31.6667C23.2339 31.6667 24.1667 30.7339 24.1667 29.5833C24.1667 28.4327 23.2339 27.5 22.0833 27.5C20.9327 27.5 20 28.4327 20 29.5833C20 30.7339 20.9327 31.6667 22.0833 31.6667Z" fill="#006DAB"/>
<path d="M27.5834 10.3251C27.5057 10.2242 27.406 10.1425 27.2919 10.0862C27.1778 10.0298 27.0523 10.0004 26.925 10.0001H7.67503L7.30003 8.8084C7.25884 8.68044 7.1873 8.56436 7.09153 8.47004C6.99576 8.37572 6.8786 8.30596 6.75003 8.26673L3.33336 7.21673C3.22831 7.18445 3.11792 7.17317 3.0085 7.18355C2.89909 7.19393 2.79279 7.22575 2.69568 7.27721C2.49954 7.38114 2.35273 7.55872 2.28753 7.7709C2.22233 7.98307 2.24409 8.21245 2.34802 8.40858C2.45194 8.60472 2.62952 8.75153 2.8417 8.81673L5.83336 9.7334L9.65003 21.7917L8.2917 22.9084L8.18336 23.0167C7.84745 23.4057 7.65713 23.8993 7.64497 24.4131C7.6328 24.9269 7.79956 25.429 8.1167 25.8334C8.34383 26.1096 8.63245 26.3288 8.95948 26.4735C9.28651 26.6182 9.64286 26.6844 10 26.6667H23.9084C24.1294 26.6667 24.3413 26.5789 24.4976 26.4227C24.6539 26.2664 24.7417 26.0544 24.7417 25.8334C24.7417 25.6124 24.6539 25.4004 24.4976 25.2441C24.3413 25.0879 24.1294 25.0001 23.9084 25.0001H9.8667C9.77074 24.9968 9.67724 24.9688 9.59525 24.9189C9.51325 24.8689 9.44552 24.7986 9.39861 24.7149C9.35169 24.6311 9.32718 24.5366 9.32743 24.4406C9.32768 24.3446 9.35268 24.2503 9.40003 24.1667L11.4084 22.5001H24.2667C24.4571 22.5056 24.6436 22.4458 24.7952 22.3306C24.9468 22.2153 25.0544 22.0516 25.1 21.8667L27.7667 11.0334C27.792 10.9092 27.7887 10.7808 27.7569 10.658C27.7252 10.5353 27.6658 10.4214 27.5834 10.3251Z" fill="#006DAB"/>
<circle cx="28.5" cy="7.55273" r="7.5" fill="#FF7A00"/>
<path d="M29.4588 3.72727V11H28.358V4.82812H28.3153L26.5753 5.96449V4.91335L28.3899 3.72727H29.4588Z" fill="white"/>
</svg>
